<?xml version="1.0" encoding="utf-8"?>
<!-- Generator: Adobe Illustrator 27.3.1, SVG Export Plug-In . SVG Version: 6.00 Build 0)  -->
<svg version="1.1" id="Livello_1" xmlns="http://www.w3.org/2000/svg" xmlns:xlink="http://www.w3.org/1999/xlink" x="0px" y="0px"
	 viewBox="0 0 2000 1000" style="enable-background:new 0 0 2000 1000;" xml:space="preserve">
<style type="text/css">
	.st0{fill:#FFFFFF;}
	.st1{fill:#2B7BBB;}
	.st2{fill:#23AEB7;}
	.st3{fill:url(#SVGID_1_);}
	.st4{fill:url(#SVGID_00000008149031430644817300000014658047441290021781_);}
	.st5{fill:url(#SVGID_00000003809447232219136190000002073070916289945757_);}
	.st6{fill:url(#SVGID_00000052077518827235884230000013370748696972946364_);}
	.st7{fill:url(#SVGID_00000085252332709148514460000009943977074275905727_);}
	.st8{fill:url(#SVGID_00000125593357354851977600000011909962030545109390_);}
	.st9{fill:url(#SVGID_00000024698656758189112780000003616580972791043261_);}
	.st10{fill:url(#SVGID_00000152241590669373893640000018437776016627087764_);}
	.st11{fill:#161F28;}
	.st12{fill:url(#SVGID_00000055702366052794779190000002949060556271533955_);}
	.st13{fill:url(#SVGID_00000093174073576096978790000001512168618988165522_);}
	.st14{fill:url(#SVGID_00000154395890886884325020000002756233727311214730_);}
	.st15{fill:url(#SVGID_00000018958544766091328370000014915675169174139014_);}
	.st16{fill:url(#SVGID_00000013165318315223692100000003654832754163499421_);}
	.st17{fill:url(#SVGID_00000093890984864035270830000007710811245890338234_);}
	.st18{fill:url(#SVGID_00000132085006238605924210000006103978314360799637_);}
	.st19{fill:url(#SVGID_00000008113472301227303660000001782530251653756814_);}
</style>
<g>
	<g>
		<g>
			<g>
				<path class="st1" d="M797.48,578.14h405.05l-45.43-81h45.54l-22.74-40.5h-45.54L1000,217.24l-134.36,239.4H820.1l-22.74,40.5
					h45.54L797.48,578.14z M1000,295.99l90.15,160.65H909.8L1000,295.99z M887.11,497.14h225.78l22.69,40.5l0.05,0.05h-271.3
					l0.05-0.05L887.11,497.14z"/>
			</g>
			<g>
				<polygon class="st1" points="1135.62,537.69 864.33,537.69 864.38,537.64 1135.58,537.64 				"/>
			</g>
		</g>
		<g>
			<g>
				<polygon class="st2" points="1202.63,497.14 1179.9,456.64 820.1,456.64 797.37,497.14 				"/>
			</g>
		</g>
		<g>
			<g>
				
					<linearGradient id="SVGID_1_" gradientUnits="userSpaceOnUse" x1="1146.1858" y1="-4028.7571" x2="1146.1858" y2="-4066.1296" gradientTransform="matrix(1 0 0 -1 0 -3550.8845)">
					<stop  offset="0" style="stop-color:#2B7BBB"/>
					<stop  offset="1" style="stop-color:#2B7BBB;stop-opacity:0"/>
				</linearGradient>
				<polygon class="st3" points="1156.9,497.22 1179.67,537.72 1135.44,537.72 1112.7,497.22 				"/>
			</g>
		</g>
		<g>
			<g>
				
					<linearGradient id="SVGID_00000035511856828124447590000005606152134469982109_" gradientUnits="userSpaceOnUse" x1="-3401.9351" y1="465.7607" x2="-3401.9351" y2="428.3883" gradientTransform="matrix(-1 0 0 1 -2300.9702 10.1454)">
					<stop  offset="0" style="stop-color:#2B7BBB"/>
					<stop  offset="1" style="stop-color:#2B7BBB;stop-opacity:0"/>
				</linearGradient>
				<polygon style="fill:url(#SVGID_00000035511856828124447590000005606152134469982109_);" points="1090.25,456.56 
					1067.48,416.06 1111.71,416.06 1134.45,456.56 				"/>
			</g>
		</g>
		<g>
			<g>
				
					<linearGradient id="SVGID_00000163066647693825697500000012964329120402520206_" gradientUnits="userSpaceOnUse" x1="893.5334" y1="460.8921" x2="922.0604" y2="478.8641">
					<stop  offset="0" style="stop-color:#23AEB7"/>
					<stop  offset="1" style="stop-color:#23AEB7;stop-opacity:0"/>
				</linearGradient>
				<polygon style="fill:url(#SVGID_00000163066647693825697500000012964329120402520206_);" points="909.8,456.64 950.74,456.64 
					951.5,497.14 887.11,497.14 				"/>
			</g>
		</g>
		<g>
			<g>
				
					<linearGradient id="SVGID_00000028293511464496242260000005021105036988046212_" gradientUnits="userSpaceOnUse" x1="857.8768" y1="487.9302" x2="836.7668" y2="472.5256">
					<stop  offset="0" style="stop-color:#23AEB7"/>
					<stop  offset="1" style="stop-color:#23AEB7;stop-opacity:0"/>
				</linearGradient>
				<polygon style="fill:url(#SVGID_00000028293511464496242260000005021105036988046212_);" points="865.64,456.64 820.1,456.64 
					819.85,497.14 842.9,497.14 				"/>
			</g>
		</g>
		<g>
			<g>
				<polygon class="st1" points="868.94,529.47 932.58,416.06 888.34,416.06 824.74,529.47 				"/>
			</g>
		</g>
	</g>
	<g>
		<g>
			<g>
				<g>
					<g>
						<path d="M735.57,773.78c-8.98-5.98-15.34-14.06-19.07-24.24l16.61-8.08c3.44,7.33,8.15,13.06,14.14,17.17
							c5.98,4.12,12.64,6.17,19.97,6.17c6.58,0,12.04-1.57,16.38-4.71c4.34-3.14,6.51-7.25,6.51-12.34c0-3.59-1.01-6.47-3.03-8.64
							c-2.02-2.17-4.42-3.89-7.18-5.16c-2.77-1.27-5.42-2.21-7.97-2.81l-18.18-5.16c-10.92-2.99-18.89-7.44-23.9-13.35
							c-5.01-5.91-7.52-12.75-7.52-20.53c0-7.18,1.83-13.43,5.5-18.74c3.66-5.31,8.68-9.46,15.04-12.45
							c6.36-2.99,13.5-4.49,21.43-4.49c10.62,0,20.16,2.69,28.61,8.08c8.45,5.39,14.47,12.94,18.07,22.67l-17.06,7.86
							c-2.69-6.28-6.77-11.26-12.23-14.92c-5.46-3.66-11.48-5.5-18.07-5.5c-5.98,0-10.81,1.5-14.47,4.49
							c-3.67,2.99-5.5,6.88-5.5,11.67c0,3.44,0.9,6.25,2.69,8.42c1.8,2.17,3.96,3.82,6.51,4.94c2.54,1.12,5.01,2.06,7.41,2.8
							l19.75,5.84c9.72,2.84,17.35,7.26,22.89,13.24c5.53,5.98,8.3,13.17,8.3,21.54c0,6.88-1.87,12.98-5.61,18.29
							c-3.74,5.31-8.9,9.46-15.48,12.45c-6.59,2.99-14.22,4.49-22.89,4.49C755.09,782.76,744.54,779.77,735.57,773.78z"/>
						<path d="M860.48,774.46c-9.13-5.53-16.31-13.09-21.55-22.67c-5.24-9.57-7.85-20.42-7.85-32.54s2.58-22.93,7.74-32.43
							c5.16-9.5,12.15-16.94,20.98-22.33c8.83-5.39,18.85-8.08,30.07-8.08c11.97,0,22.18,2.77,30.63,8.3
							c8.45,5.54,14.93,12.72,19.41,21.54c4.49,8.83,6.73,18.26,6.73,28.28c0,3.44-0.38,7.18-1.12,11.22h-92.46
							c0.3,7.78,2.28,14.51,5.95,20.2c3.67,5.69,8.38,10.06,14.14,13.13c5.76,3.07,12.01,4.6,18.74,4.6
							c8.08,0,14.89-1.87,20.42-5.61c5.53-3.74,10.02-8.53,13.46-14.36l17.51,8.98c-3.74,8.38-10.18,15.49-19.3,21.32
							c-9.13,5.84-19.9,8.75-32.31,8.75C880,782.76,869.6,779.99,860.48,774.46z M866.09,683.79c-6.88,5.84-11.07,13.84-12.57,24.01
							h70.47c-0.15-6.43-1.8-12.12-4.94-17.06c-3.14-4.94-7.26-8.79-12.34-11.56c-5.09-2.77-10.7-4.15-16.83-4.15
							C880.9,675.04,872.97,677.96,866.09,683.79z"/>
						<path d="M993.23,774.46c-9.13-5.53-16.31-13.09-21.55-22.67c-5.24-9.57-7.85-20.42-7.85-32.54s2.58-22.93,7.74-32.43
							c5.16-9.5,12.15-16.94,20.98-22.33c8.83-5.39,18.85-8.08,30.07-8.08c11.97,0,22.18,2.77,30.63,8.3
							c8.45,5.54,14.93,12.72,19.41,21.54c4.49,8.83,6.73,18.26,6.73,28.28c0,3.44-0.38,7.18-1.12,11.22h-92.46
							c0.3,7.78,2.28,14.51,5.95,20.2c3.67,5.69,8.38,10.06,14.14,13.13c5.76,3.07,12.01,4.6,18.74,4.6
							c8.08,0,14.89-1.87,20.42-5.61c5.53-3.74,10.02-8.53,13.46-14.36l17.51,8.98c-3.74,8.38-10.18,15.49-19.3,21.32
							c-9.13,5.84-19.9,8.75-32.31,8.75C1012.75,782.76,1002.35,779.99,993.23,774.46z M998.84,683.79
							c-6.88,5.84-11.07,13.84-12.57,24.01h70.47c-0.15-6.43-1.8-12.12-4.94-17.06c-3.14-4.94-7.26-8.79-12.34-11.56
							c-5.09-2.77-10.7-4.15-16.83-4.15C1013.65,675.04,1005.72,677.96,998.84,683.79z"/>
						<path d="M1103.23,659.11h20.42v14.36c3.14-5.23,7.41-9.16,12.79-11.78c5.39-2.62,11.82-3.93,19.3-3.93h7.41v19.75h-10.55
							c-8.53,0-15.41,2.66-20.65,7.97c-5.24,5.31-7.85,12.83-7.85,22.55v72.04h-20.87V659.11z"/>
						<path d="M1197.33,774.46c-9.13-5.53-16.31-13.09-21.55-22.67c-5.24-9.57-7.85-20.42-7.85-32.54s2.58-22.93,7.74-32.43
							c5.16-9.5,12.15-16.94,20.98-22.33c8.83-5.39,18.85-8.08,30.07-8.08c11.97,0,22.18,2.77,30.63,8.3
							c8.45,5.54,14.93,12.72,19.41,21.54c4.49,8.83,6.73,18.26,6.73,28.28c0,3.44-0.38,7.18-1.12,11.22h-92.46
							c0.3,7.78,2.28,14.51,5.95,20.2c3.67,5.69,8.38,10.06,14.14,13.13c5.76,3.07,12.01,4.6,18.74,4.6
							c8.08,0,14.89-1.87,20.42-5.61c5.53-3.74,10.02-8.53,13.46-14.36l17.51,8.98c-3.74,8.38-10.18,15.49-19.3,21.32
							c-9.13,5.84-19.9,8.75-32.31,8.75C1216.86,782.76,1206.46,779.99,1197.33,774.46z M1202.94,683.79
							c-6.88,5.84-11.07,13.84-12.57,24.01h70.47c-0.15-6.43-1.8-12.12-4.94-17.06c-3.14-4.94-7.26-8.79-12.34-11.56
							c-5.09-2.77-10.7-4.15-16.83-4.15C1217.75,675.04,1209.82,677.96,1202.94,683.79z"/>
					</g>
				</g>
			</g>
		</g>
	</g>
</g>
</svg>
