<?xml version="1.0" encoding="utf-8"?>
<!-- Generator: Adobe Illustrator 27.3.1, SVG Export Plug-In . SVG Version: 6.00 Build 0)  -->
<svg version="1.1" id="Livello_1" xmlns="http://www.w3.org/2000/svg" xmlns:xlink="http://www.w3.org/1999/xlink" x="0px" y="0px"
	viewBox="0 0 2000 1000" style="enable-background:new 0 0 2000 1000;" xml:space="preserve">
<style type="text/css">
	.st0{fill:#FFFFFF;}
	.st1{fill:#2B7BBB;}
	.st2{fill:#23AEB7;}
	.st3{fill:url(#SVGID_1_);}
	.st4{fill:url(#SVGID_00000158722208218024519610000001773766169643647889_);}
	.st5{fill:url(#SVGID_00000139252881891720389660000015918459339664904852_);}
	.st6{fill:url(#SVGID_00000054242498266803608790000002929312288629413266_);}
	.st7{fill:url(#SVGID_00000161631638700173530470000011299034775521844137_);}
	.st8{fill:url(#SVGID_00000085231397131030816000000004996551470491253689_);}
	.st9{fill:url(#SVGID_00000148623184156143338950000010250930493585345422_);}
	.st10{fill:url(#SVGID_00000127756296319302460870000014876285310050925472_);}
	.st11{fill:#161F28;}
	.st12{fill:url(#SVGID_00000134935981326102920520000002580526180352083343_);}
	.st13{fill:url(#SVGID_00000166670294557828917770000010162030054110728885_);}
	.st14{fill:url(#SVGID_00000036231207594651284520000012347634249851816844_);}
	.st15{fill:url(#SVGID_00000028289458762217753560000015560886407987669693_);}
	.st16{fill:url(#SVGID_00000059993994345880061350000009802825976970075568_);}
	.st17{fill:url(#SVGID_00000052804509394487713760000002200950509164340113_);}
	.st18{fill:url(#SVGID_00000146466548407448598520000009153878677320315562_);}
	.st19{fill:url(#SVGID_00000026139080555243419390000012791290424463424945_);}
</style>
<g>
	<g>
		<g>
			<g>
				<path class="st11" d="M829.43,629.46c-15.03-10.02-25.69-23.55-31.95-40.59l27.81-13.53c5.76,12.28,13.65,21.87,23.68,28.75
					c10.02,6.9,21.17,10.34,33.45,10.34c11.02,0,20.17-2.63,27.44-7.89c7.26-5.26,10.9-12.15,10.9-20.67
					c0-6.02-1.69-10.84-5.07-14.47c-3.38-3.63-7.4-6.51-12.03-8.64c-4.64-2.13-9.08-3.69-13.34-4.7l-30.44-8.64
					c-18.3-5.01-31.64-12.46-40.03-22.36c-8.4-9.9-12.59-21.36-12.59-34.39c0-12.03,3.07-22.49,9.21-31.39
					c6.14-8.89,14.53-15.84,25.18-20.86c10.65-5.01,22.61-7.52,35.9-7.52c17.79,0,33.76,4.51,47.92,13.53
					c14.15,9.02,24.24,21.68,30.26,37.96l-28.57,13.16c-4.51-10.52-11.34-18.85-20.48-25c-9.15-6.14-19.24-9.21-30.26-9.21
					c-10.02,0-18.11,2.51-24.24,7.52c-6.14,5.02-9.21,11.53-9.21,19.54c0,5.77,1.5,10.47,4.51,14.1c3.01,3.64,6.64,6.39,10.9,8.27
					c4.26,1.88,8.39,3.45,12.4,4.7l33.08,9.77c16.28,4.76,29.06,12.16,38.34,22.18c9.27,10.02,13.91,22.05,13.91,36.08
					c0,11.53-3.13,21.74-9.4,30.63c-6.26,8.9-14.91,15.85-25.93,20.86c-11.03,5.01-23.81,7.52-38.34,7.52
					C862.13,644.49,844.46,639.48,829.43,629.46z"/>
				<path class="st11" d="M1033.89,630.58c-15.29-9.27-27.32-21.92-36.09-37.96c-8.77-16.03-13.15-34.2-13.15-54.5
					s4.32-38.4,12.97-54.31c8.65-15.91,20.35-28.38,35.15-37.4c14.78-9.02,31.57-13.53,50.37-13.53c20.04,0,37.14,4.64,51.3,13.91
					c14.15,9.27,25,21.3,32.51,36.08c7.52,14.79,11.28,30.58,11.28,47.36c0,5.77-0.63,12.03-1.88,18.79h-154.86
					c0.5,13.03,3.82,24.31,9.96,33.83c6.14,9.53,14.03,16.86,23.68,21.99c9.65,5.14,20.11,7.7,31.39,7.7
					c13.53,0,24.93-3.13,34.21-9.4c9.27-6.26,16.78-14.28,22.55-24.05l29.32,15.03c-6.27,14.04-17.04,25.94-32.33,35.71
					c-15.29,9.77-33.33,14.66-54.12,14.66C1066.59,644.49,1049.17,639.86,1033.89,630.58z M1043.28,478.73
					c-11.53,9.77-18.55,23.18-21.05,40.22h118.02c-0.25-10.77-3.01-20.3-8.27-28.57c-5.26-8.27-12.16-14.72-20.67-19.36
					c-8.52-4.63-17.92-6.95-28.19-6.95C1068.09,464.07,1054.81,468.96,1043.28,478.73z"/>
				<path class="st11" d="M1253.86,630.58c-15.29-9.27-27.32-21.92-36.09-37.96c-8.77-16.03-13.15-34.2-13.15-54.5
					s4.32-38.4,12.97-54.31c8.65-15.91,20.35-28.38,35.15-37.4c14.78-9.02,31.57-13.53,50.37-13.53c20.04,0,37.14,4.64,51.3,13.91
					c14.15,9.27,25,21.3,32.51,36.08c7.52,14.79,11.28,30.58,11.28,47.36c0,5.77-0.63,12.03-1.88,18.79h-154.86
					c0.5,13.03,3.82,24.31,9.96,33.83c6.14,9.53,14.03,16.86,23.68,21.99c9.65,5.14,20.11,7.7,31.39,7.7
					c13.53,0,24.93-3.13,34.21-9.4c9.27-6.26,16.78-14.28,22.55-24.05l29.32,15.03c-6.27,14.04-17.04,25.94-32.33,35.71
					c-15.29,9.77-33.33,14.66-54.12,14.66C1286.56,644.49,1269.14,639.86,1253.86,630.58z M1263.25,478.73
					c-11.53,9.77-18.55,23.18-21.05,40.22h118.02c-0.25-10.77-3.01-20.3-8.27-28.57c-5.26-8.27-12.16-14.72-20.67-19.36
					c-8.52-4.63-17.92-6.95-28.19-6.95C1288.06,464.07,1274.78,468.96,1263.25,478.73z"/>
				<path class="st11" d="M1428.6,437.39h34.21v24.06c5.26-8.77,12.41-15.35,21.43-19.73c9.02-4.38,19.79-6.58,32.32-6.58h12.41
					v33.08h-17.67c-14.28,0-25.81,4.45-34.58,13.34c-8.77,8.9-13.15,21.49-13.15,37.77v120.65h-34.96V437.39z"/>
				<path class="st11" d="M1584.89,630.58c-15.29-9.27-27.32-21.92-36.09-37.96c-8.77-16.03-13.15-34.2-13.15-54.5
					s4.32-38.4,12.97-54.31c8.65-15.91,20.35-28.38,35.15-37.4c14.78-9.02,31.57-13.53,50.37-13.53c20.04,0,37.14,4.64,51.3,13.91
					c14.15,9.27,25,21.3,32.51,36.08c7.52,14.79,11.28,30.58,11.28,47.36c0,5.77-0.63,12.03-1.88,18.79h-154.86
					c0.5,13.03,3.82,24.31,9.96,33.83c6.14,9.53,14.03,16.86,23.68,21.99c9.65,5.14,20.11,7.7,31.39,7.7
					c13.53,0,24.93-3.13,34.21-9.4c9.27-6.26,16.78-14.28,22.55-24.05l29.32,15.03c-6.27,14.04-17.04,25.94-32.33,35.71
					c-15.29,9.77-33.33,14.66-54.12,14.66C1617.59,644.49,1600.17,639.86,1584.89,630.58z M1594.28,478.73
					c-11.53,9.77-18.55,23.18-21.05,40.22h118.02c-0.25-10.77-3.01-20.3-8.27-28.57c-5.26-8.27-12.16-14.72-20.67-19.36
					c-8.52-4.63-17.92-6.95-28.19-6.95C1619.09,464.07,1605.81,468.96,1594.28,478.73z"/>
			</g>
		</g>
	</g>
	<g>
		<g>
			<path class="st1" d="M270.89,680.45h405.05l-45.43-81h45.54l-22.74-40.5h-45.54l-134.36-239.4l-134.36,239.4h-45.54l-22.74,40.5
				h45.54L270.89,680.45z M473.41,398.3l90.15,160.65H383.22L473.41,398.3z M360.53,599.45H586.3l22.69,40.5l0.05,0.05h-271.3
				l0.05-0.05L360.53,599.45z"/>
		</g>
		<g>
			<polygon class="st1" points="609.04,640 337.74,640 337.79,639.95 608.99,639.95 			"/>
		</g>
	</g>
	<g>
		<g>
			<polygon class="st2" points="676.05,599.45 653.31,558.95 293.52,558.95 270.78,599.45 			"/>
		</g>
	</g>
	<g>
		<g>
				<linearGradient id="SVGID_1_" gradientUnits="userSpaceOnUse" x1="619.5999" y1="-4131.0679" x2="619.5999" y2="-4168.4404" gradientTransform="matrix(1 0 0 -1 0 -3550.8845)">
				<stop  offset="0" style="stop-color:#2B7BBB"/>
				<stop  offset="1" style="stop-color:#2B7BBB;stop-opacity:0"/>
			</linearGradient>
			<polygon class="st3" points="630.32,599.53 653.09,640.03 608.85,640.03 586.11,599.53 			"/>
		</g>
	</g>
	<g>
		<g>
				<linearGradient id="SVGID_00000103231228856683425290000016038697328132107967_" gradientUnits="userSpaceOnUse" x1="1250.4099" y1="568.0714" x2="1250.4099" y2="530.699" gradientTransform="matrix(-1 0 0 1 1824.7888 10.1454)">
				<stop  offset="0" style="stop-color:#2B7BBB"/>
				<stop  offset="1" style="stop-color:#2B7BBB;stop-opacity:0"/>
			</linearGradient>
			<polygon style="fill:url(#SVGID_00000103231228856683425290000016038697328132107967_);" points="563.66,558.87 540.89,518.37
				585.13,518.37 607.87,558.87 			"/>
		</g>
	</g>
	<g>
		<g>
				<linearGradient id="SVGID_00000060739432578864852390000016415900704722137243_" gradientUnits="userSpaceOnUse" x1="366.9476" y1="563.2028" x2="395.4745" y2="581.1747">
				<stop  offset="0" style="stop-color:#23AEB7"/>
				<stop  offset="1" style="stop-color:#23AEB7;stop-opacity:0"/>
			</linearGradient>
			<polygon style="fill:url(#SVGID_00000060739432578864852390000016415900704722137243_);" points="383.22,558.95 424.15,558.95
				424.92,599.45 360.53,599.45 			"/>
		</g>
	</g>
	<g>
		<g>
			
				<linearGradient id="SVGID_00000109000204103320690540000007217925986302230159_" gradientUnits="userSpaceOnUse" x1="331.2909" y1="590.2408" x2="310.181" y2="574.8363">
				<stop  offset="0" style="stop-color:#23AEB7"/>
				<stop  offset="1" style="stop-color:#23AEB7;stop-opacity:0"/>
			</linearGradient>
			<polygon style="fill:url(#SVGID_00000109000204103320690540000007217925986302230159_);" points="339.05,558.95 293.52,558.95 
				293.27,599.45 316.32,599.45 			"/>
		</g>
	</g>
	<g>
		<g>
			<polygon class="st1" points="342.36,631.78 405.99,518.37 361.76,518.37 298.16,631.78 			"/>
		</g>
	</g>
</g>
</svg>
